<?xml version="1.0" encoding="UTF-8" standalone="no"?>
<!DOCTYPE svg PUBLIC "-//W3C//DTD SVG 1.1//EN"
 "http://www.w3.org/Graphics/SVG/1.1/DTD/svg11.dtd">
<!-- Generated by graphviz version 2.43.0 (0)
 -->
<!-- Title: G Pages: 1 -->
<svg width="1282pt" height="460pt"
 viewBox="0.00 0.00 1282.00 460.00" xmlns="http://www.w3.org/2000/svg" xmlns:xlink="http://www.w3.org/1999/xlink">
<g id="graph0" class="graph" transform="scale(1 1) rotate(0) translate(4 456)">
<title>G</title>
<polygon fill="white" stroke="transparent" points="-4,4 -4,-456 1278,-456 1278,4 -4,4"/>
<!-- A -->
<g id="node1" class="node">
<title>A</title>
<polygon fill="none" stroke="black" points="733.6,-356.57 663.6,-356.57 663.6,-303.57 733.6,-303.57 733.6,-356.57"/>
<text text-anchor="middle" x="698.6" y="-341.37" font-family="Times,serif" font-size="14.00">Engine</text>
<text text-anchor="middle" x="698.6" y="-326.37" font-family="Times,serif" font-size="14.00">Control</text>
<text text-anchor="middle" x="698.6" y="-311.37" font-family="Times,serif" font-size="14.00">Module</text>
</g>
<!-- D -->
<g id="node4" class="node">
<title>D</title>
<polygon fill="none" stroke="black" points="623.15,-252.55 553.15,-252.55 553.15,-199.55 623.15,-199.55 623.15,-252.55"/>
<text text-anchor="middle" x="588.15" y="-237.35" font-family="Times,serif" font-size="14.00">Body</text>
<text text-anchor="middle" x="588.15" y="-222.35" font-family="Times,serif" font-size="14.00">Control</text>
<text text-anchor="middle" x="588.15" y="-207.35" font-family="Times,serif" font-size="14.00">Module</text>
</g>
<!-- A&#45;&gt;D -->
<g id="edge1" class="edge">
<title>A&#45;&gt;D</title>
<path fill="none" stroke="black" stroke-width="2" d="M670.44,-303.55C656.4,-290.32 639.26,-274.18 624.26,-260.05"/>
<polygon fill="black" stroke="black" stroke-width="2" points="626.32,-257.19 616.64,-252.88 621.52,-262.28 626.32,-257.19"/>
<text text-anchor="middle" x="579.35" y="-285.6" font-family="Times,serif" font-size="14.00">RPM of Crankshaft</text>
</g>
<!-- F -->
<g id="node6" class="node">
<title>F</title>
<polygon fill="none" stroke="black" points="860.3,-252.55 768.3,-252.55 768.3,-199.55 860.3,-199.55 860.3,-252.55"/>
<text text-anchor="middle" x="814.3" y="-237.35" font-family="Times,serif" font-size="14.00">Parking</text>
<text text-anchor="middle" x="814.3" y="-222.35" font-family="Times,serif" font-size="14.00">Assistance</text>
<text text-anchor="middle" x="814.3" y="-207.35" font-family="Times,serif" font-size="14.00">ECU</text>
</g>
<!-- A&#45;&gt;F -->
<g id="edge3" class="edge">
<title>A&#45;&gt;F</title>
<path fill="none" stroke="black" stroke-width="2" d="M733.65,-306.69C750.36,-292.88 770.05,-275.21 785.82,-259.91"/>
<polygon fill="black" stroke="black" stroke-width="2" points="788.56,-262.13 793.22,-252.61 783.64,-257.14 788.56,-262.13"/>
<text text-anchor="middle" x="711.74" y="-287.1" font-family="Times,serif" font-size="14.00">Brake Switch</text>
</g>
<!-- B -->
<g id="node2" class="node">
<title>B</title>
<polygon fill="none" stroke="black" points="420.67,-356.57 308.67,-356.57 308.67,-303.57 420.67,-303.57 420.67,-356.57"/>
<text text-anchor="middle" x="364.67" y="-341.37" font-family="Times,serif" font-size="14.00">Transmission</text>
<text text-anchor="middle" x="364.67" y="-326.37" font-family="Times,serif" font-size="14.00">Control</text>
<text text-anchor="middle" x="364.67" y="-311.37" font-family="Times,serif" font-size="14.00">Module</text>
</g>
<!-- B&#45;&gt;D -->
<g id="edge11" class="edge">
<title>B&#45;&gt;D</title>
<path fill="none" stroke="black" stroke-width="2" d="M420.78,-303.95C458.88,-286.22 508.56,-263.09 543.88,-246.65"/>
<polygon fill="black" stroke="black" stroke-width="2" points="545.39,-249.81 552.98,-242.42 542.44,-243.46 545.39,-249.81"/>
<text text-anchor="middle" x="403.83" y="-279.1" font-family="Times,serif" font-size="14.00">Transmission Position</text>
</g>
<!-- C -->
<g id="node3" class="node">
<title>C</title>
<polygon fill="none" stroke="black" points="1004.18,-148.53 934.18,-148.53 934.18,-95.53 1004.18,-95.53 1004.18,-148.53"/>
<text text-anchor="middle" x="969.18" y="-133.33" font-family="Times,serif" font-size="14.00">Brake</text>
<text text-anchor="middle" x="969.18" y="-118.33" font-family="Times,serif" font-size="14.00">Control</text>
<text text-anchor="middle" x="969.18" y="-103.33" font-family="Times,serif" font-size="14.00">Module</text>
</g>
<!-- C&#45;&gt;F -->
<g id="edge10" class="edge">
<title>C&#45;&gt;F</title>
<path fill="none" stroke="black" stroke-width="2" d="M933.97,-138.94C909.48,-153.73 876.91,-175.42 851.91,-193.52"/>
<polygon fill="black" stroke="black" stroke-width="2" points="849.75,-190.76 843.75,-199.5 853.88,-196.41 849.75,-190.76"/>
<text text-anchor="middle" x="842.94" y="-170.03" font-family="Times,serif" font-size="14.00">Vehicle Speed</text>
</g>
<!-- K -->
<g id="node13" class="node">
<title>K</title>
<polygon fill="none" stroke="black" points="1178.77,-36.01 1053.77,-36.01 1053.77,-0.01 1178.77,-0.01 1178.77,-36.01"/>
<text text-anchor="middle" x="1116.27" y="-14.31" font-family="Times,serif" font-size="14.00">Brake Actuator</text>
</g>
<!-- C&#45;&gt;K -->
<g id="edge17" class="edge">
<title>C&#45;&gt;K</title>
<path fill="none" stroke="black" d="M1004.38,-104.09C1031.09,-87.04 1067.13,-61.46 1091.03,-42.54"/>
<polygon fill="black" stroke="black" points="1093.36,-45.16 1098.95,-36.16 1088.97,-39.71 1093.36,-45.16"/>
<text text-anchor="middle" x="1000.7" y="-77.12" font-family="Times,serif" font-size="14.00">Wheel Speed</text>
</g>
<!-- L -->
<g id="node14" class="node">
<title>L</title>
<polygon fill="none" stroke="black" points="1274.06,-140.03 1166.06,-140.03 1166.06,-104.03 1274.06,-104.03 1274.06,-140.03"/>
<text text-anchor="middle" x="1220.06" y="-118.33" font-family="Times,serif" font-size="14.00">Brake Lights</text>
</g>
<!-- C&#45;&gt;L -->
<g id="edge18" class="edge">
<title>C&#45;&gt;L</title>
<path fill="none" stroke="black" d="M1004.33,-122.03C1043.48,-122.03 1107.61,-122.03 1155.79,-122.03"/>
<polygon fill="black" stroke="black" points="1155.81,-125.53 1165.81,-122.03 1155.81,-118.53 1155.81,-125.53"/>
<text text-anchor="middle" x="1103.06" y="-110.83" font-family="Times,serif" font-size="14.00">Brake Lights</text>
<text text-anchor="middle" x="1103.06" y="-95.83" font-family="Times,serif" font-size="14.00">Command</text>
</g>
<!-- G -->
<g id="node7" class="node">
<title>G</title>
<polygon fill="none" stroke="black" points="357.75,-252.55 287.75,-252.55 287.75,-199.55 357.75,-199.55 357.75,-252.55"/>
<text text-anchor="middle" x="322.75" y="-237.35" font-family="Times,serif" font-size="14.00">Door</text>
<text text-anchor="middle" x="322.75" y="-222.35" font-family="Times,serif" font-size="14.00">Control</text>
<text text-anchor="middle" x="322.75" y="-207.35" font-family="Times,serif" font-size="14.00">Module</text>
</g>
<!-- D&#45;&gt;G -->
<g id="edge4" class="edge">
<title>D&#45;&gt;G</title>
<path fill="none" stroke="black" stroke-width="2" d="M552.91,-221.29C505.32,-218.8 420.46,-218.64 368.15,-220.81"/>
<polygon fill="black" stroke="black" stroke-width="2" points="367.97,-217.32 358.14,-221.28 368.29,-224.31 367.97,-217.32"/>
<text text-anchor="middle" x="460.53" y="-209.85" font-family="Times,serif" font-size="14.00">Lock Doors Request</text>
</g>
<!-- H -->
<g id="node8" class="node">
<title>H</title>
<polygon fill="none" stroke="black" points="416.96,-148.53 346.96,-148.53 346.96,-95.53 416.96,-95.53 416.96,-148.53"/>
<text text-anchor="middle" x="381.96" y="-133.33" font-family="Times,serif" font-size="14.00">Wiper</text>
<text text-anchor="middle" x="381.96" y="-118.33" font-family="Times,serif" font-size="14.00">Control</text>
<text text-anchor="middle" x="381.96" y="-103.33" font-family="Times,serif" font-size="14.00">Module</text>
</g>
<!-- D&#45;&gt;H -->
<g id="edge6" class="edge">
<title>D&#45;&gt;H</title>
<path fill="none" stroke="black" stroke-width="2" d="M552.71,-208.17C517.79,-190.55 464.32,-163.58 426.54,-144.51"/>
<polygon fill="black" stroke="black" stroke-width="2" points="427.79,-141.23 417.29,-139.85 424.64,-147.48 427.79,-141.23"/>
<text text-anchor="middle" x="412.12" y="-180.14" font-family="Times,serif" font-size="14.00">Pivot Wipers Request</text>
</g>
<!-- E -->
<g id="node5" class="node">
<title>E</title>
<polygon fill="none" stroke="black" points="1056.02,-348.07 902.02,-348.07 902.02,-312.07 1056.02,-312.07 1056.02,-348.07"/>
<text text-anchor="middle" x="979.02" y="-326.37" font-family="Times,serif" font-size="14.00">Instrument Cluster</text>
</g>
<!-- E&#45;&gt;F -->
<g id="edge7" class="edge">
<title>E&#45;&gt;F</title>
<path fill="none" stroke="black" stroke-width="2" d="M959.36,-311.99C937.29,-295.78 900.58,-272 869.61,-253.49"/>
<polygon fill="black" stroke="black" stroke-width="2" points="871.01,-250.26 860.62,-248.18 867.45,-256.28 871.01,-250.26"/>
<text text-anchor="middle" x="875.48" y="-286.54" font-family="Times,serif" font-size="14.00">User Input</text>
</g>
<!-- N -->
<g id="node16" class="node">
<title>N</title>
<polygon fill="none" stroke="black" points="1191.07,-452.08 1073.07,-452.08 1073.07,-416.08 1191.07,-416.08 1191.07,-452.08"/>
<text text-anchor="middle" x="1132.07" y="-430.38" font-family="Times,serif" font-size="14.00">Warning Light</text>
</g>
<!-- E&#45;&gt;N -->
<g id="edge20" class="edge">
<title>E&#45;&gt;N</title>
<path fill="none" stroke="black" d="M1005.68,-348.18C1030.95,-365.36 1069.07,-391.27 1096.84,-410.14"/>
<polygon fill="black" stroke="black" points="1095.23,-413.27 1105.46,-416 1099.16,-407.48 1095.23,-413.27"/>
<text text-anchor="middle" x="985.26" y="-382.96" font-family="Times,serif" font-size="14.00">Obstacle Detected</text>
</g>
<!-- F&#45;&gt;A -->
<g id="edge2" class="edge">
<title>F&#45;&gt;A</title>
<path fill="none" stroke="black" stroke-width="2" d="M775.41,-252.61C759.63,-265.85 741.76,-281.96 727.21,-296.07"/>
<polygon fill="black" stroke="black" stroke-width="2" points="724.59,-293.74 719.93,-303.25 729.51,-298.72 724.59,-293.74"/>
<text text-anchor="middle" x="704.31" y="-263.14" font-family="Times,serif" font-size="14.00">Reduce</text>
<text text-anchor="middle" x="704.31" y="-248.14" font-family="Times,serif" font-size="14.00">Speed/Power</text>
</g>
<!-- F&#45;&gt;C -->
<g id="edge9" class="edge">
<title>F&#45;&gt;C</title>
<path fill="none" stroke="black" stroke-width="2" d="M860.44,-202.42C883.06,-188.28 909.95,-170.2 931.35,-154.72"/>
<polygon fill="black" stroke="black" stroke-width="2" points="933.55,-157.44 939.55,-148.71 929.42,-151.8 933.55,-157.44"/>
<text text-anchor="middle" x="961.89" y="-182.37" font-family="Times,serif" font-size="14.00">Decelerate Brakes</text>
</g>
<!-- F&#45;&gt;E -->
<g id="edge8" class="edge">
<title>F&#45;&gt;E</title>
<path fill="none" stroke="black" stroke-width="2" d="M845.83,-252.6C869.97,-269.43 903.64,-290.87 931.1,-306.99"/>
<polygon fill="black" stroke="black" stroke-width="2" points="929.37,-310.04 939.78,-312.03 932.89,-303.98 929.37,-310.04"/>
<text text-anchor="middle" x="870.47" y="-268.6" font-family="Times,serif" font-size="14.00">Alert</text>
</g>
<!-- G&#45;&gt;D -->
<g id="edge5" class="edge">
<title>G&#45;&gt;D</title>
<path fill="none" stroke="black" stroke-width="2" d="M358,-230.81C405.59,-233.29 490.44,-233.45 542.76,-231.28"/>
<polygon fill="black" stroke="black" stroke-width="2" points="542.94,-234.77 552.77,-230.81 542.61,-227.78 542.94,-234.77"/>
<text text-anchor="middle" x="511.88" y="-234.84" font-family="Times,serif" font-size="14.00">Door Locks State</text>
</g>
<!-- T -->
<g id="node20" class="node">
<title>T</title>
<polygon fill="none" stroke="black" points="173.21,-157.28 11.21,-157.28 11.21,-121.28 173.21,-121.28 173.21,-157.28"/>
<text text-anchor="middle" x="92.21" y="-135.58" font-family="Times,serif" font-size="14.00">Door Lock Actuators</text>
</g>
<!-- G&#45;&gt;T -->
<g id="edge24" class="edge">
<title>G&#45;&gt;T</title>
<path fill="none" stroke="black" d="M287.74,-212.87C251.2,-199.12 193.31,-177.33 149.98,-161.02"/>
<polygon fill="black" stroke="black" points="151.01,-157.67 140.42,-157.42 148.54,-164.22 151.01,-157.67"/>
<text text-anchor="middle" x="140.36" y="-190.75" font-family="Times,serif" font-size="14.00">Lock Doors Command</text>
</g>
<!-- U -->
<g id="node21" class="node">
<title>U</title>
<polygon fill="none" stroke="black" points="459.31,-36.01 308.31,-36.01 308.31,-0.01 459.31,-0.01 459.31,-36.01"/>
<text text-anchor="middle" x="383.81" y="-14.31" font-family="Times,serif" font-size="14.00">Windshield Wipers</text>
</g>
<!-- H&#45;&gt;U -->
<g id="edge25" class="edge">
<title>H&#45;&gt;U</title>
<path fill="none" stroke="black" d="M382.43,-95.51C382.7,-80.59 383.03,-61.96 383.3,-46.7"/>
<polygon fill="black" stroke="black" points="386.8,-46.35 383.48,-36.29 379.8,-46.22 386.8,-46.35"/>
<text text-anchor="middle" x="298.36" y="-74.9" font-family="Times,serif" font-size="14.00">Pivot Wipers Command</text>
</g>
<!-- I -->
<g id="node9" class="node">
<title>I</title>
<polygon fill="none" stroke="black" points="715.67,-140.03 570.67,-140.03 570.67,-104.03 715.67,-104.03 715.67,-140.03"/>
<text text-anchor="middle" x="643.17" y="-118.33" font-family="Times,serif" font-size="14.00">Ultrasonic Sensor</text>
</g>
<!-- I&#45;&gt;F -->
<g id="edge12" class="edge">
<title>I&#45;&gt;F</title>
<path fill="none" stroke="black" d="M672.97,-140.15C697.36,-154.97 732.45,-176.3 761.56,-193.99"/>
<polygon fill="black" stroke="black" points="760.02,-197.15 770.39,-199.36 763.66,-191.17 760.02,-197.15"/>
<text text-anchor="middle" x="685.77" y="-170.87" font-family="Times,serif" font-size="14.00">Distance</text>
</g>
<!-- J -->
<g id="node10" class="node">
<title>J</title>
<polygon fill="none" stroke="black" points="596.28,-452.08 484.28,-452.08 484.28,-416.08 596.28,-416.08 596.28,-452.08"/>
<text text-anchor="middle" x="540.28" y="-430.38" font-family="Times,serif" font-size="14.00">Brake Switch</text>
</g>
<!-- J&#45;&gt;A -->
<g id="edge13" class="edge">
<title>J&#45;&gt;A</title>
<path fill="none" stroke="black" d="M567.86,-415.97C591.94,-400.14 627.31,-376.9 655.19,-358.58"/>
<polygon fill="black" stroke="black" points="657.15,-361.49 663.58,-353.07 653.3,-355.64 657.15,-361.49"/>
</g>
<!-- P -->
<g id="node11" class="node">
<title>P</title>
<polygon fill="none" stroke="black" points="777.3,-452.08 604.3,-452.08 604.3,-416.08 777.3,-416.08 777.3,-452.08"/>
<text text-anchor="middle" x="690.8" y="-430.38" font-family="Times,serif" font-size="14.00">Mass Air Flow Sensor</text>
</g>
<!-- P&#45;&gt;A -->
<g id="edge14" class="edge">
<title>P&#45;&gt;A</title>
<path fill="none" stroke="black" d="M692.16,-415.97C693.17,-402.47 694.59,-383.58 695.83,-366.95"/>
<polygon fill="black" stroke="black" points="699.32,-367.19 696.58,-356.95 692.34,-366.66 699.32,-367.19"/>
</g>
<!-- Q -->
<g id="node12" class="node">
<title>Q</title>
<polygon fill="none" stroke="black" points="965.32,-452.08 785.32,-452.08 785.32,-416.08 965.32,-416.08 965.32,-452.08"/>
<text text-anchor="middle" x="875.32" y="-430.38" font-family="Times,serif" font-size="14.00">Engine Coolant Sensor</text>
</g>
<!-- Q&#45;&gt;A -->
<g id="edge15" class="edge">
<title>Q&#45;&gt;A</title>
<path fill="none" stroke="black" d="M844.54,-415.97C816.33,-399.37 774.27,-374.61 742.54,-355.93"/>
<polygon fill="black" stroke="black" points="744.27,-352.89 733.88,-350.83 740.72,-358.92 744.27,-352.89"/>
</g>
<!-- K&#45;&gt;C -->
<g id="edge16" class="edge">
<title>K&#45;&gt;C</title>
<path fill="none" stroke="black" d="M1080.7,-36.18C1057.83,-50.81 1028.23,-71.59 1005.26,-89.08"/>
<polygon fill="black" stroke="black" points="1002.9,-86.49 997.12,-95.37 1007.18,-92.03 1002.9,-86.49"/>
<text text-anchor="middle" x="988.48" y="-51.43" font-family="Times,serif" font-size="14.00">Brake Actuator</text>
<text text-anchor="middle" x="988.48" y="-36.43" font-family="Times,serif" font-size="14.00">Command</text>
</g>
<!-- M -->
<g id="node15" class="node">
<title>M</title>
<polygon fill="none" stroke="black" points="1188.84,-244.05 1054.84,-244.05 1054.84,-208.05 1188.84,-208.05 1188.84,-244.05"/>
<text text-anchor="middle" x="1121.84" y="-222.35" font-family="Times,serif" font-size="14.00">Pressure Sensor</text>
</g>
<!-- M&#45;&gt;C -->
<g id="edge19" class="edge">
<title>M&#45;&gt;C</title>
<path fill="none" stroke="black" d="M1095.25,-207.93C1072.51,-192.43 1039.34,-169.83 1012.73,-151.7"/>
<polygon fill="black" stroke="black" points="1014.58,-148.72 1004.34,-145.99 1010.64,-154.51 1014.58,-148.72"/>
<text text-anchor="middle" x="1109.49" y="-183.61" font-family="Times,serif" font-size="14.00">Brake Pressure</text>
</g>
<!-- R -->
<g id="node17" class="node">
<title>R</title>
<polygon fill="none" stroke="black" points="1233.91,-348.07 1121.91,-348.07 1121.91,-312.07 1233.91,-312.07 1233.91,-348.07"/>
<text text-anchor="middle" x="1177.91" y="-326.37" font-family="Times,serif" font-size="14.00">Speedometer</text>
</g>
<!-- R&#45;&gt;E -->
<g id="edge21" class="edge">
<title>R&#45;&gt;E</title>
<path fill="none" stroke="black" d="M1121.72,-330.07C1104.48,-330.07 1085.09,-330.07 1066.3,-330.07"/>
<polygon fill="black" stroke="black" points="1066.23,-326.57 1056.23,-330.07 1066.23,-333.57 1066.23,-326.57"/>
</g>
<!-- O -->
<g id="node18" class="node">
<title>O</title>
<polygon fill="none" stroke="black" points="446.02,-452.08 276.02,-452.08 276.02,-416.08 446.02,-416.08 446.02,-452.08"/>
<text text-anchor="middle" x="361.02" y="-430.38" font-family="Times,serif" font-size="14.00">Vehicle Speed Sensor</text>
</g>
<!-- O&#45;&gt;B -->
<g id="edge22" class="edge">
<title>O&#45;&gt;B</title>
<path fill="none" stroke="black" d="M361.66,-415.97C362.13,-402.47 362.79,-383.58 363.38,-366.95"/>
<polygon fill="black" stroke="black" points="366.87,-367.07 363.73,-356.95 359.88,-366.82 366.87,-367.07"/>
</g>
<!-- S -->
<g id="node19" class="node">
<title>S</title>
<polygon fill="none" stroke="black" points="227.13,-348.07 0.13,-348.07 0.13,-312.07 227.13,-312.07 227.13,-348.07"/>
<text text-anchor="middle" x="113.63" y="-326.37" font-family="Times,serif" font-size="14.00">Transmission Position Sensor</text>
</g>
<!-- S&#45;&gt;B -->
<g id="edge23" class="edge">
<title>S&#45;&gt;B</title>
<path fill="none" stroke="black" d="M227.4,-330.07C251.7,-330.07 276.6,-330.07 298.4,-330.07"/>
<polygon fill="black" stroke="black" points="298.51,-333.57 308.51,-330.07 298.51,-326.57 298.51,-333.57"/>
</g>
</g>
</svg>
