<?xml version="1.0" encoding="UTF-8" standalone="no"?>
<!DOCTYPE svg PUBLIC "-//W3C//DTD SVG 1.1//EN"
 "http://www.w3.org/Graphics/SVG/1.1/DTD/svg11.dtd">
<!-- Generated by graphviz version 2.43.0 (0)
 -->
<!-- Title: G Pages: 1 -->
<svg width="1179pt" height="378pt"
 viewBox="0.00 0.00 1178.50 378.00" xmlns="http://www.w3.org/2000/svg" xmlns:xlink="http://www.w3.org/1999/xlink">
<g id="graph0" class="graph" transform="scale(1 1) rotate(0) translate(4 374)">
<title>G</title>
<polygon fill="white" stroke="transparent" points="-4,4 -4,-374 1174.5,-374 1174.5,4 -4,4"/>
<!-- A -->
<g id="node1" class="node">
<title>A</title>
<polygon fill="none" stroke="black" points="780.5,-297 598.5,-297 598.5,-261 780.5,-261 780.5,-297"/>
<text text-anchor="middle" x="689.5" y="-275.3" font-family="Times,serif" font-size="14.00">Engine Control Module</text>
</g>
<!-- D -->
<g id="node4" class="node">
<title>D</title>
<polygon fill="none" stroke="black" points="407.5,-210 239.5,-210 239.5,-174 407.5,-174 407.5,-210"/>
<text text-anchor="middle" x="323.5" y="-188.3" font-family="Times,serif" font-size="14.00">Body Control Module</text>
</g>
<!-- A&#45;&gt;D -->
<g id="edge1" class="edge">
<title>A&#45;&gt;D</title>
<path fill="none" stroke="black" stroke-width="2" d="M615.87,-260.9C555.44,-246.87 469.87,-226.99 406.91,-212.37"/>
<polygon fill="black" stroke="black" stroke-width="2" points="407.54,-208.92 397.01,-210.07 405.96,-215.74 407.54,-208.92"/>
<text text-anchor="middle" x="612.5" y="-231.8" font-family="Times,serif" font-size="14.00">RPM of Crankshaft</text>
</g>
<!-- F -->
<g id="node6" class="node">
<title>F</title>
<polygon fill="none" stroke="black" points="910,-210 721,-210 721,-174 910,-174 910,-210"/>
<text text-anchor="middle" x="815.5" y="-188.3" font-family="Times,serif" font-size="14.00">Parking Assistance ECU</text>
</g>
<!-- A&#45;&gt;F -->
<g id="edge3" class="edge">
<title>A&#45;&gt;F</title>
<path fill="none" stroke="black" stroke-width="2" d="M715,-260.8C734.21,-247.84 760.74,-229.94 781.72,-215.79"/>
<polygon fill="black" stroke="black" stroke-width="2" points="783.71,-218.67 790.04,-210.18 779.79,-212.87 783.71,-218.67"/>
<text text-anchor="middle" x="734.5" y="-231.8" font-family="Times,serif" font-size="14.00">Brake Switch</text>
</g>
<!-- B -->
<g id="node2" class="node">
<title>B</title>
<polygon fill="none" stroke="black" points="437,-297 210,-297 210,-261 437,-261 437,-297"/>
<text text-anchor="middle" x="323.5" y="-275.3" font-family="Times,serif" font-size="14.00">Transmission Control Module</text>
</g>
<!-- B&#45;&gt;D -->
<g id="edge11" class="edge">
<title>B&#45;&gt;D</title>
<path fill="none" stroke="black" stroke-width="2" d="M323.5,-260.8C323.5,-249.16 323.5,-233.55 323.5,-220.24"/>
<polygon fill="black" stroke="black" stroke-width="2" points="327,-220.18 323.5,-210.18 320,-220.18 327,-220.18"/>
<text text-anchor="middle" x="402" y="-231.8" font-family="Times,serif" font-size="14.00">Transmission Position</text>
</g>
<!-- C -->
<g id="node3" class="node">
<title>C</title>
<polygon fill="none" stroke="black" points="747.5,-123 573.5,-123 573.5,-87 747.5,-87 747.5,-123"/>
<text text-anchor="middle" x="660.5" y="-101.3" font-family="Times,serif" font-size="14.00">Brake Control Module</text>
</g>
<!-- C&#45;&gt;F -->
<g id="edge10" class="edge">
<title>C&#45;&gt;F</title>
<path fill="none" stroke="black" stroke-width="2" d="M691.56,-123.03C715.61,-136.22 749.12,-154.6 775.23,-168.92"/>
<polygon fill="black" stroke="black" stroke-width="2" points="773.68,-172.06 784.13,-173.8 777.05,-165.92 773.68,-172.06"/>
<text text-anchor="middle" x="849.5" y="-144.8" font-family="Times,serif" font-size="14.00">Vehicle Speed</text>
</g>
<!-- K -->
<g id="node13" class="node">
<title>K</title>
<polygon fill="none" stroke="black" points="704,-36 579,-36 579,0 704,0 704,-36"/>
<text text-anchor="middle" x="641.5" y="-14.3" font-family="Times,serif" font-size="14.00">Brake Actuator</text>
</g>
<!-- C&#45;&gt;K -->
<g id="edge17" class="edge">
<title>C&#45;&gt;K</title>
<path fill="none" stroke="black" d="M656.66,-86.8C654.05,-75.16 650.56,-59.55 647.59,-46.24"/>
<polygon fill="black" stroke="black" points="650.94,-45.17 645.34,-36.18 644.11,-46.7 650.94,-45.17"/>
<text text-anchor="middle" x="597.5" y="-57.8" font-family="Times,serif" font-size="14.00">Wheel Speed</text>
</g>
<!-- L -->
<g id="node14" class="node">
<title>L</title>
<polygon fill="none" stroke="black" points="912.5,-36 804.5,-36 804.5,0 912.5,0 912.5,-36"/>
<text text-anchor="middle" x="858.5" y="-14.3" font-family="Times,serif" font-size="14.00">Brake Lights</text>
</g>
<!-- C&#45;&gt;L -->
<g id="edge18" class="edge">
<title>C&#45;&gt;L</title>
<path fill="none" stroke="black" d="M700.57,-86.8C731.94,-73.33 775.72,-54.54 809.23,-40.15"/>
<polygon fill="black" stroke="black" points="811.02,-43.19 818.83,-36.03 808.26,-36.76 811.02,-43.19"/>
<text text-anchor="middle" x="927" y="-57.8" font-family="Times,serif" font-size="14.00">Brake Lights Command</text>
</g>
<!-- G -->
<g id="node7" class="node">
<title>G</title>
<polygon fill="none" stroke="black" points="318,-123 151,-123 151,-87 318,-87 318,-123"/>
<text text-anchor="middle" x="234.5" y="-101.3" font-family="Times,serif" font-size="14.00">Door Control Module</text>
</g>
<!-- D&#45;&gt;G -->
<g id="edge4" class="edge">
<title>D&#45;&gt;G</title>
<path fill="none" stroke="black" stroke-width="2" d="M305.49,-173.8C292.34,-161.24 274.34,-144.05 259.76,-130.12"/>
<polygon fill="black" stroke="black" stroke-width="2" points="262.13,-127.55 252.48,-123.18 257.3,-132.61 262.13,-127.55"/>
<text text-anchor="middle" x="379" y="-144.8" font-family="Times,serif" font-size="14.00">Lock Doors Request</text>
</g>
<!-- H -->
<g id="node8" class="node">
<title>H</title>
<polygon fill="none" stroke="black" points="555,-123 380,-123 380,-87 555,-87 555,-123"/>
<text text-anchor="middle" x="467.5" y="-101.3" font-family="Times,serif" font-size="14.00">Wiper Control Module</text>
</g>
<!-- D&#45;&gt;H -->
<g id="edge6" class="edge">
<title>D&#45;&gt;H</title>
<path fill="none" stroke="black" stroke-width="2" d="M352.64,-173.8C374.79,-160.72 405.46,-142.62 429.53,-128.41"/>
<polygon fill="black" stroke="black" stroke-width="2" points="431.57,-131.27 438.4,-123.18 428.01,-125.24 431.57,-131.27"/>
</g>
<!-- E -->
<g id="node5" class="node">
<title>E</title>
<polygon fill="none" stroke="black" points="1100.5,-123 946.5,-123 946.5,-87 1100.5,-87 1100.5,-123"/>
<text text-anchor="middle" x="1023.5" y="-101.3" font-family="Times,serif" font-size="14.00">Instrument Cluster</text>
</g>
<!-- E&#45;&gt;F -->
<g id="edge7" class="edge">
<title>E&#45;&gt;F</title>
<path fill="none" stroke="black" stroke-width="2" d="M981.83,-123.03C948.84,-136.51 902.61,-155.4 867.25,-169.85"/>
<polygon fill="black" stroke="black" stroke-width="2" points="865.52,-166.78 857.59,-173.8 868.17,-173.26 865.52,-166.78"/>
<text text-anchor="middle" x="1028.5" y="-144.8" font-family="Times,serif" font-size="14.00">User Input</text>
</g>
<!-- N -->
<g id="node16" class="node">
<title>N</title>
<polygon fill="none" stroke="black" points="1109.5,-36 991.5,-36 991.5,0 1109.5,0 1109.5,-36"/>
<text text-anchor="middle" x="1050.5" y="-14.3" font-family="Times,serif" font-size="14.00">Warning Light</text>
</g>
<!-- E&#45;&gt;N -->
<g id="edge20" class="edge">
<title>E&#45;&gt;N</title>
<path fill="none" stroke="black" d="M1028.96,-86.8C1032.7,-75.05 1037.72,-59.24 1041.97,-45.84"/>
<polygon fill="black" stroke="black" points="1045.35,-46.77 1045.04,-36.18 1038.68,-44.65 1045.35,-46.77"/>
<text text-anchor="middle" x="1104.5" y="-57.8" font-family="Times,serif" font-size="14.00">Obstacle Detected</text>
</g>
<!-- F&#45;&gt;A -->
<g id="edge2" class="edge">
<title>F&#45;&gt;A</title>
<path fill="none" stroke="black" stroke-width="2" d="M790.04,-210.18C770.84,-223.13 744.31,-241.03 723.32,-255.18"/>
<polygon fill="black" stroke="black" stroke-width="2" points="721.33,-252.3 715,-260.8 725.25,-258.11 721.33,-252.3"/>
<text text-anchor="middle" x="870" y="-231.8" font-family="Times,serif" font-size="14.00">Reduce Speed/Power</text>
</g>
<!-- F&#45;&gt;C -->
<g id="edge9" class="edge">
<title>F&#45;&gt;C</title>
<path fill="none" stroke="black" stroke-width="2" d="M784.13,-173.8C760,-160.56 726.48,-142.18 700.43,-127.9"/>
<polygon fill="black" stroke="black" stroke-width="2" points="702.01,-124.77 691.56,-123.03 698.64,-130.91 702.01,-124.77"/>
<text text-anchor="middle" x="727.5" y="-144.8" font-family="Times,serif" font-size="14.00">Decelerate Brakes</text>
</g>
<!-- F&#45;&gt;E -->
<g id="edge8" class="edge">
<title>F&#45;&gt;E</title>
<path fill="none" stroke="black" stroke-width="2" d="M857.59,-173.8C890.69,-160.27 936.93,-141.38 972.19,-126.97"/>
<polygon fill="black" stroke="black" stroke-width="2" points="973.89,-130.05 981.83,-123.03 971.25,-123.57 973.89,-130.05"/>
<text text-anchor="middle" x="953.5" y="-144.8" font-family="Times,serif" font-size="14.00">Alert</text>
</g>
<!-- G&#45;&gt;D -->
<g id="edge5" class="edge">
<title>G&#45;&gt;D</title>
<path fill="none" stroke="black" stroke-width="2" d="M252.48,-123.18C265.63,-135.73 283.63,-152.92 298.21,-166.85"/>
<polygon fill="black" stroke="black" stroke-width="2" points="295.84,-169.42 305.49,-173.8 300.68,-164.36 295.84,-169.42"/>
<text text-anchor="middle" x="235" y="-144.8" font-family="Times,serif" font-size="14.00">Door Locks State</text>
</g>
<!-- T -->
<g id="node20" class="node">
<title>T</title>
<polygon fill="none" stroke="black" points="315.5,-36 153.5,-36 153.5,0 315.5,0 315.5,-36"/>
<text text-anchor="middle" x="234.5" y="-14.3" font-family="Times,serif" font-size="14.00">Door Lock Actuators</text>
</g>
<!-- G&#45;&gt;T -->
<g id="edge24" class="edge">
<title>G&#45;&gt;T</title>
<path fill="none" stroke="black" d="M234.5,-86.8C234.5,-75.16 234.5,-59.55 234.5,-46.24"/>
<polygon fill="black" stroke="black" points="238,-46.18 234.5,-36.18 231,-46.18 238,-46.18"/>
<text text-anchor="middle" x="313" y="-57.8" font-family="Times,serif" font-size="14.00">Lock Doors Command</text>
</g>
<!-- U -->
<g id="node21" class="node">
<title>U</title>
<polygon fill="none" stroke="black" points="543,-36 392,-36 392,0 543,0 543,-36"/>
<text text-anchor="middle" x="467.5" y="-14.3" font-family="Times,serif" font-size="14.00">Windshield Wipers</text>
</g>
<!-- H&#45;&gt;U -->
<g id="edge25" class="edge">
<title>H&#45;&gt;U</title>
<path fill="none" stroke="black" d="M467.5,-86.8C467.5,-75.16 467.5,-59.55 467.5,-46.24"/>
<polygon fill="black" stroke="black" points="471,-46.18 467.5,-36.18 464,-46.18 471,-46.18"/>
</g>
<!-- I -->
<g id="node9" class="node">
<title>I</title>
<polygon fill="none" stroke="black" points="1047,-297 902,-297 902,-261 1047,-261 1047,-297"/>
<text text-anchor="middle" x="974.5" y="-275.3" font-family="Times,serif" font-size="14.00">Ultrasonic Sensor</text>
</g>
<!-- I&#45;&gt;F -->
<g id="edge12" class="edge">
<title>I&#45;&gt;F</title>
<path fill="none" stroke="black" d="M942.32,-260.8C917.57,-247.56 883.18,-229.18 856.46,-214.9"/>
<polygon fill="black" stroke="black" points="857.83,-211.66 847.36,-210.03 854.53,-217.83 857.83,-211.66"/>
</g>
<!-- J -->
<g id="node10" class="node">
<title>J</title>
<polygon fill="none" stroke="black" points="745.5,-370 633.5,-370 633.5,-334 745.5,-334 745.5,-370"/>
<text text-anchor="middle" x="689.5" y="-348.3" font-family="Times,serif" font-size="14.00">Brake Switch</text>
</g>
<!-- J&#45;&gt;A -->
<g id="edge13" class="edge">
<title>J&#45;&gt;A</title>
<path fill="none" stroke="black" d="M689.5,-333.81C689.5,-325.79 689.5,-316.05 689.5,-307.07"/>
<polygon fill="black" stroke="black" points="693,-307.03 689.5,-297.03 686,-307.03 693,-307.03"/>
</g>
<!-- P -->
<g id="node11" class="node">
<title>P</title>
<polygon fill="none" stroke="black" points="937,-370 764,-370 764,-334 937,-334 937,-370"/>
<text text-anchor="middle" x="850.5" y="-348.3" font-family="Times,serif" font-size="14.00">Mass Air Flow Sensor</text>
</g>
<!-- P&#45;&gt;A -->
<g id="edge14" class="edge">
<title>P&#45;&gt;A</title>
<path fill="none" stroke="black" d="M811.94,-333.99C789.6,-324.14 761.28,-311.66 737.51,-301.17"/>
<polygon fill="black" stroke="black" points="738.87,-297.95 728.31,-297.11 736.04,-304.35 738.87,-297.95"/>
</g>
<!-- Q -->
<g id="node12" class="node">
<title>Q</title>
<polygon fill="none" stroke="black" points="615.5,-370 435.5,-370 435.5,-334 615.5,-334 615.5,-370"/>
<text text-anchor="middle" x="525.5" y="-348.3" font-family="Times,serif" font-size="14.00">Engine Coolant Sensor</text>
</g>
<!-- Q&#45;&gt;A -->
<g id="edge15" class="edge">
<title>Q&#45;&gt;A</title>
<path fill="none" stroke="black" d="M564.78,-333.99C587.54,-324.14 616.38,-311.66 640.6,-301.17"/>
<polygon fill="black" stroke="black" points="642.18,-304.3 649.97,-297.11 639.4,-297.87 642.18,-304.3"/>
</g>
<!-- K&#45;&gt;C -->
<g id="edge16" class="edge">
<title>K&#45;&gt;C</title>
<path fill="none" stroke="black" d="M645.34,-36.18C647.94,-47.81 651.43,-63.42 654.41,-76.73"/>
<polygon fill="black" stroke="black" points="651.06,-77.8 656.66,-86.8 657.89,-76.28 651.06,-77.8"/>
<text text-anchor="middle" x="744" y="-57.8" font-family="Times,serif" font-size="14.00">Brake Actuator Command</text>
</g>
<!-- M -->
<g id="node15" class="node">
<title>M</title>
<polygon fill="none" stroke="black" points="593.5,-210 459.5,-210 459.5,-174 593.5,-174 593.5,-210"/>
<text text-anchor="middle" x="526.5" y="-188.3" font-family="Times,serif" font-size="14.00">Pressure Sensor</text>
</g>
<!-- M&#45;&gt;C -->
<g id="edge19" class="edge">
<title>M&#45;&gt;C</title>
<path fill="none" stroke="black" d="M553.62,-173.8C574.14,-160.78 602.52,-142.78 624.87,-128.6"/>
<polygon fill="black" stroke="black" points="626.85,-131.49 633.42,-123.18 623.1,-125.58 626.85,-131.49"/>
<text text-anchor="middle" x="583" y="-144.8" font-family="Times,serif" font-size="14.00">Brake Pressure</text>
</g>
<!-- R -->
<g id="node17" class="node">
<title>R</title>
<polygon fill="none" stroke="black" points="1146.5,-210 1034.5,-210 1034.5,-174 1146.5,-174 1146.5,-210"/>
<text text-anchor="middle" x="1090.5" y="-188.3" font-family="Times,serif" font-size="14.00">Speedometer</text>
</g>
<!-- R&#45;&gt;E -->
<g id="edge21" class="edge">
<title>R&#45;&gt;E</title>
<path fill="none" stroke="black" d="M1076.94,-173.8C1067.32,-161.59 1054.23,-144.99 1043.42,-131.28"/>
<polygon fill="black" stroke="black" points="1045.98,-128.86 1037.04,-123.18 1040.48,-133.2 1045.98,-128.86"/>
</g>
<!-- O -->
<g id="node18" class="node">
<title>O</title>
<polygon fill="none" stroke="black" points="415.5,-370 245.5,-370 245.5,-334 415.5,-334 415.5,-370"/>
<text text-anchor="middle" x="330.5" y="-348.3" font-family="Times,serif" font-size="14.00">Vehicle Speed Sensor</text>
</g>
<!-- O&#45;&gt;B -->
<g id="edge22" class="edge">
<title>O&#45;&gt;B</title>
<path fill="none" stroke="black" d="M328.81,-333.81C328.01,-325.79 327.05,-316.05 326.17,-307.07"/>
<polygon fill="black" stroke="black" points="329.64,-306.64 325.18,-297.03 322.68,-307.32 329.64,-306.64"/>
</g>
<!-- S -->
<g id="node19" class="node">
<title>S</title>
<polygon fill="none" stroke="black" points="227,-370 0,-370 0,-334 227,-334 227,-370"/>
<text text-anchor="middle" x="113.5" y="-348.3" font-family="Times,serif" font-size="14.00">Transmission Position Sensor</text>
</g>
<!-- S&#45;&gt;B -->
<g id="edge23" class="edge">
<title>S&#45;&gt;B</title>
<path fill="none" stroke="black" d="M163.8,-333.99C193.71,-323.88 231.84,-310.99 263.34,-300.34"/>
<polygon fill="black" stroke="black" points="264.53,-303.63 272.88,-297.11 262.29,-297 264.53,-303.63"/>
</g>
</g>
</svg>
