<?xml version="1.0" encoding="UTF-8" standalone="no"?>
<!DOCTYPE svg PUBLIC "-//W3C//DTD SVG 1.1//EN"
 "http://www.w3.org/Graphics/SVG/1.1/DTD/svg11.dtd">
<!-- Generated by graphviz version 2.43.0 (0)
 -->
<!-- Title: G Pages: 1 -->
<svg width="1179pt" height="378pt"
 viewBox="0.00 0.00 1178.50 378.00" xmlns="http://www.w3.org/2000/svg" xmlns:xlink="http://www.w3.org/1999/xlink">
<g id="graph0" class="graph" transform="scale(1 1) rotate(0) translate(4 374)">
<title>G</title>
<polygon fill="white" stroke="transparent" points="-4,4 -4,-374 1174.5,-374 1174.5,4 -4,4"/>
<!-- A -->
<g id="node1" class="node">
<title>A</title>
<polygon fill="none" stroke="black" points="780.5,-297 598.5,-297 598.5,-261 780.5,-261 780.5,-297"/>
<text text-anchor="middle" x="689.5" y="-275.3" font-family="Times,serif" font-size="14.00">Engine Control Module</text>
</g>
<!-- D -->
<g id="node4" class="node">
<title>D</title>
<polygon fill="none" stroke="black" points="407.5,-210 239.5,-210 239.5,-174 407.5,-174 407.5,-210"/>
<text text-anchor="middle" x="323.5" y="-188.3" font-family="Times,serif" font-size="14.00">Body Control Module</text>
</g>
<!-- A&#45;&gt;D -->
<g id="edge1" class="edge">
<title>A&#45;&gt;D</title>
<path fill="none" stroke="black" d="M614.74,-260.92C590.97,-255.36 564.6,-249.06 540.5,-243 515.51,-236.72 509.54,-234.07 484.5,-228 462.22,-222.6 438.11,-217.15 415.51,-212.21"/>
<polygon fill="black" stroke="black" points="416.09,-208.76 405.58,-210.05 414.61,-215.6 416.09,-208.76"/>
<text text-anchor="middle" x="608.5" y="-231.8" font-family="Times,serif" font-size="14.00">RPM of Crankshaft</text>
</g>
<!-- F -->
<g id="node6" class="node">
<title>F</title>
<polygon fill="none" stroke="black" points="910,-210 721,-210 721,-174 910,-174 910,-210"/>
<text text-anchor="middle" x="815.5" y="-188.3" font-family="Times,serif" font-size="14.00">Parking Assistance ECU</text>
</g>
<!-- A&#45;&gt;F -->
<g id="edge3" class="edge">
<title>A&#45;&gt;F</title>
<path fill="none" stroke="black" d="M683.16,-260.59C680.54,-250.13 679.53,-237.12 686.5,-228 690.8,-222.38 700.36,-217.45 712.44,-213.21"/>
<polygon fill="black" stroke="black" points="713.68,-216.49 722.13,-210.09 711.54,-209.82 713.68,-216.49"/>
<text text-anchor="middle" x="734.5" y="-231.8" font-family="Times,serif" font-size="14.00">Brake Switch</text>
</g>
<!-- B -->
<g id="node2" class="node">
<title>B</title>
<polygon fill="none" stroke="black" points="437,-297 210,-297 210,-261 437,-261 437,-297"/>
<text text-anchor="middle" x="323.5" y="-275.3" font-family="Times,serif" font-size="14.00">Transmission Control Module</text>
</g>
<!-- B&#45;&gt;D -->
<g id="edge12" class="edge">
<title>B&#45;&gt;D</title>
<path fill="none" stroke="black" d="M323.5,-260.8C323.5,-249.16 323.5,-233.55 323.5,-220.24"/>
<polygon fill="black" stroke="black" points="327,-220.18 323.5,-210.18 320,-220.18 327,-220.18"/>
<text text-anchor="middle" x="402" y="-231.8" font-family="Times,serif" font-size="14.00">Transmission Position</text>
</g>
<!-- C -->
<g id="node3" class="node">
<title>C</title>
<polygon fill="none" stroke="black" points="747.5,-123 573.5,-123 573.5,-87 747.5,-87 747.5,-123"/>
<text text-anchor="middle" x="660.5" y="-101.3" font-family="Times,serif" font-size="14.00">Brake Control Module</text>
</g>
<!-- C&#45;&gt;F -->
<g id="edge10" class="edge">
<title>C&#45;&gt;F</title>
<path fill="none" stroke="black" d="M747.6,-116.95C764.19,-122.18 780.43,-129.84 793.5,-141 800.55,-147.02 805.42,-155.73 808.75,-164.2"/>
<polygon fill="black" stroke="black" points="805.5,-165.49 812,-173.86 812.13,-163.27 805.5,-165.49"/>
<text text-anchor="middle" x="853.5" y="-144.8" font-family="Times,serif" font-size="14.00">Vehicle Speed</text>
</g>
<!-- K -->
<g id="node13" class="node">
<title>K</title>
<polygon fill="none" stroke="black" points="704,-36 579,-36 579,0 704,0 704,-36"/>
<text text-anchor="middle" x="641.5" y="-14.3" font-family="Times,serif" font-size="14.00">Brake Actuator</text>
</g>
<!-- C&#45;&gt;K -->
<g id="edge17" class="edge">
<title>C&#45;&gt;K</title>
<path fill="none" stroke="black" d="M573.46,-88.49C564.53,-83.6 556.53,-77.25 550.5,-69 539.94,-54.56 551.24,-43.81 569.03,-36.05"/>
<polygon fill="black" stroke="black" points="570.77,-39.13 578.84,-32.26 568.25,-32.59 570.77,-39.13"/>
<text text-anchor="middle" x="597.5" y="-57.8" font-family="Times,serif" font-size="14.00">Wheel Speed</text>
</g>
<!-- L -->
<g id="node14" class="node">
<title>L</title>
<polygon fill="none" stroke="black" points="912.5,-36 804.5,-36 804.5,0 912.5,0 912.5,-36"/>
<text text-anchor="middle" x="858.5" y="-14.3" font-family="Times,serif" font-size="14.00">Brake Lights</text>
</g>
<!-- C&#45;&gt;L -->
<g id="edge18" class="edge">
<title>C&#45;&gt;L</title>
<path fill="none" stroke="black" d="M747.72,-94.27C784.63,-88.63 822.35,-80.36 836.5,-69 843.73,-63.2 848.65,-54.54 851.96,-46.05"/>
<polygon fill="black" stroke="black" points="855.35,-46.93 855.16,-36.34 848.71,-44.74 855.35,-46.93"/>
<text text-anchor="middle" x="932" y="-57.8" font-family="Times,serif" font-size="14.00">Brake Lights Command</text>
</g>
<!-- G -->
<g id="node7" class="node">
<title>G</title>
<polygon fill="none" stroke="black" points="318,-123 151,-123 151,-87 318,-87 318,-123"/>
<text text-anchor="middle" x="234.5" y="-101.3" font-family="Times,serif" font-size="14.00">Door Control Module</text>
</g>
<!-- D&#45;&gt;G -->
<g id="edge4" class="edge">
<title>D&#45;&gt;G</title>
<path fill="none" stroke="black" d="M318.64,-173.62C315.01,-163.17 309.16,-150.17 300.5,-141 296.12,-136.36 290.98,-132.21 285.54,-128.54"/>
<polygon fill="black" stroke="black" points="287.15,-125.42 276.8,-123.15 283.48,-131.38 287.15,-125.42"/>
<text text-anchor="middle" x="383" y="-144.8" font-family="Times,serif" font-size="14.00">Lock Doors Request</text>
</g>
<!-- H -->
<g id="node8" class="node">
<title>H</title>
<polygon fill="none" stroke="black" points="555,-123 380,-123 380,-87 555,-87 555,-123"/>
<text text-anchor="middle" x="467.5" y="-101.3" font-family="Times,serif" font-size="14.00">Wiper Control Module</text>
</g>
<!-- D&#45;&gt;H -->
<g id="edge6" class="edge">
<title>D&#45;&gt;H</title>
<path fill="none" stroke="black" d="M407.61,-176.8C430.29,-171.35 450.72,-164.39 458.5,-156 464.15,-149.91 466.86,-141.52 468.03,-133.37"/>
<polygon fill="black" stroke="black" points="471.52,-133.57 468.79,-123.34 464.54,-133.04 471.52,-133.57"/>
</g>
<!-- E -->
<g id="node5" class="node">
<title>E</title>
<polygon fill="none" stroke="black" points="1100.5,-123 946.5,-123 946.5,-87 1100.5,-87 1100.5,-123"/>
<text text-anchor="middle" x="1023.5" y="-101.3" font-family="Times,serif" font-size="14.00">Instrument Cluster</text>
</g>
<!-- E&#45;&gt;F -->
<g id="edge7" class="edge">
<title>E&#45;&gt;F</title>
<path fill="none" stroke="black" d="M1009,-123.12C997.9,-135.83 983.22,-151.68 975.5,-156 958.52,-165.51 939.19,-172.44 919.97,-177.48"/>
<polygon fill="black" stroke="black" points="919.12,-174.09 910.25,-179.88 920.8,-180.88 919.12,-174.09"/>
<text text-anchor="middle" x="1030.5" y="-144.8" font-family="Times,serif" font-size="14.00">User Input</text>
</g>
<!-- N -->
<g id="node16" class="node">
<title>N</title>
<polygon fill="none" stroke="black" points="1109.5,-36 991.5,-36 991.5,0 1109.5,0 1109.5,-36"/>
<text text-anchor="middle" x="1050.5" y="-14.3" font-family="Times,serif" font-size="14.00">Warning Light</text>
</g>
<!-- E&#45;&gt;N -->
<g id="edge20" class="edge">
<title>E&#45;&gt;N</title>
<path fill="none" stroke="black" d="M1028.96,-86.8C1032.7,-75.05 1037.72,-59.24 1041.97,-45.84"/>
<polygon fill="black" stroke="black" points="1045.35,-46.77 1045.04,-36.18 1038.68,-44.65 1045.35,-46.77"/>
<text text-anchor="middle" x="1104.5" y="-57.8" font-family="Times,serif" font-size="14.00">Obstacle Detected</text>
</g>
<!-- F&#45;&gt;A -->
<g id="edge2" class="edge">
<title>F&#45;&gt;A</title>
<path fill="none" stroke="black" d="M809.05,-210.37C804.28,-221.09 796.82,-234.38 786.5,-243 780.27,-248.2 773.2,-252.66 765.79,-256.48"/>
<polygon fill="black" stroke="black" points="763.8,-253.54 756.25,-260.97 766.79,-259.87 763.8,-253.54"/>
<text text-anchor="middle" x="874" y="-231.8" font-family="Times,serif" font-size="14.00">Reduce Speed/Power</text>
</g>
<!-- F&#45;&gt;C -->
<g id="edge9" class="edge">
<title>F&#45;&gt;C</title>
<path fill="none" stroke="black" d="M720.79,-179.2C694.04,-173.83 669.9,-166.31 661.5,-156 656.33,-149.66 654.83,-141.21 655,-133.07"/>
<polygon fill="black" stroke="black" points="658.49,-133.39 655.96,-123.1 651.52,-132.72 658.49,-133.39"/>
<text text-anchor="middle" x="727.5" y="-144.8" font-family="Times,serif" font-size="14.00">Decelerate Brakes</text>
</g>
<!-- F&#45;&gt;E -->
<g id="edge8" class="edge">
<title>F&#45;&gt;E</title>
<path fill="none" stroke="black" d="M863.73,-173.98C877.98,-168.6 893.51,-162.38 907.5,-156 920.35,-150.14 922.7,-146.95 935.5,-141 945.99,-136.12 957.37,-131.28 968.35,-126.82"/>
<polygon fill="black" stroke="black" points="969.88,-129.98 977.86,-123.02 967.28,-123.48 969.88,-129.98"/>
<text text-anchor="middle" x="953.5" y="-144.8" font-family="Times,serif" font-size="14.00">Alert</text>
</g>
<!-- G&#45;&gt;D -->
<g id="edge5" class="edge">
<title>G&#45;&gt;D</title>
<path fill="none" stroke="black" d="M191.27,-123.11C175.43,-131.93 163.54,-143.45 173.5,-156 181.39,-165.94 204.03,-173.32 229.41,-178.67"/>
<polygon fill="black" stroke="black" points="228.76,-182.11 239.25,-180.62 230.12,-175.24 228.76,-182.11"/>
<text text-anchor="middle" x="235" y="-144.8" font-family="Times,serif" font-size="14.00">Door Locks State</text>
</g>
<!-- T -->
<g id="node20" class="node">
<title>T</title>
<polygon fill="none" stroke="black" points="315.5,-36 153.5,-36 153.5,0 315.5,0 315.5,-36"/>
<text text-anchor="middle" x="234.5" y="-14.3" font-family="Times,serif" font-size="14.00">Door Lock Actuators</text>
</g>
<!-- G&#45;&gt;T -->
<g id="edge24" class="edge">
<title>G&#45;&gt;T</title>
<path fill="none" stroke="black" d="M234.5,-86.8C234.5,-75.16 234.5,-59.55 234.5,-46.24"/>
<polygon fill="black" stroke="black" points="238,-46.18 234.5,-36.18 231,-46.18 238,-46.18"/>
<text text-anchor="middle" x="313" y="-57.8" font-family="Times,serif" font-size="14.00">Lock Doors Command</text>
</g>
<!-- U -->
<g id="node21" class="node">
<title>U</title>
<polygon fill="none" stroke="black" points="543,-36 392,-36 392,0 543,0 543,-36"/>
<text text-anchor="middle" x="467.5" y="-14.3" font-family="Times,serif" font-size="14.00">Windshield Wipers</text>
</g>
<!-- H&#45;&gt;U -->
<g id="edge25" class="edge">
<title>H&#45;&gt;U</title>
<path fill="none" stroke="black" d="M467.5,-86.8C467.5,-75.16 467.5,-59.55 467.5,-46.24"/>
<polygon fill="black" stroke="black" points="471,-46.18 467.5,-36.18 464,-46.18 471,-46.18"/>
</g>
<!-- I -->
<g id="node9" class="node">
<title>I</title>
<polygon fill="none" stroke="black" points="1047,-297 902,-297 902,-261 1047,-261 1047,-297"/>
<text text-anchor="middle" x="974.5" y="-275.3" font-family="Times,serif" font-size="14.00">Ultrasonic Sensor</text>
</g>
<!-- I&#45;&gt;F -->
<g id="edge11" class="edge">
<title>I&#45;&gt;F</title>
<path fill="none" stroke="black" d="M971.38,-260.85C968.52,-249.94 963.2,-236.35 953.5,-228 943.65,-219.52 932.02,-213.05 919.76,-208.11"/>
<polygon fill="black" stroke="black" points="920.88,-204.79 910.28,-204.63 918.46,-211.36 920.88,-204.79"/>
</g>
<!-- J -->
<g id="node10" class="node">
<title>J</title>
<polygon fill="none" stroke="black" points="745.5,-370 633.5,-370 633.5,-334 745.5,-334 745.5,-370"/>
<text text-anchor="middle" x="689.5" y="-348.3" font-family="Times,serif" font-size="14.00">Brake Switch</text>
</g>
<!-- J&#45;&gt;A -->
<g id="edge13" class="edge">
<title>J&#45;&gt;A</title>
<path fill="none" stroke="black" d="M689.5,-333.81C689.5,-325.79 689.5,-316.05 689.5,-307.07"/>
<polygon fill="black" stroke="black" points="693,-307.03 689.5,-297.03 686,-307.03 693,-307.03"/>
</g>
<!-- P -->
<g id="node11" class="node">
<title>P</title>
<polygon fill="none" stroke="black" points="937,-370 764,-370 764,-334 937,-334 937,-370"/>
<text text-anchor="middle" x="850.5" y="-348.3" font-family="Times,serif" font-size="14.00">Mass Air Flow Sensor</text>
</g>
<!-- P&#45;&gt;A -->
<g id="edge14" class="edge">
<title>P&#45;&gt;A</title>
<path fill="none" stroke="black" d="M811.94,-333.99C789.6,-324.14 761.28,-311.66 737.51,-301.17"/>
<polygon fill="black" stroke="black" points="738.87,-297.95 728.31,-297.11 736.04,-304.35 738.87,-297.95"/>
</g>
<!-- Q -->
<g id="node12" class="node">
<title>Q</title>
<polygon fill="none" stroke="black" points="615.5,-370 435.5,-370 435.5,-334 615.5,-334 615.5,-370"/>
<text text-anchor="middle" x="525.5" y="-348.3" font-family="Times,serif" font-size="14.00">Engine Coolant Sensor</text>
</g>
<!-- Q&#45;&gt;A -->
<g id="edge15" class="edge">
<title>Q&#45;&gt;A</title>
<path fill="none" stroke="black" d="M564.78,-333.99C587.54,-324.14 616.38,-311.66 640.6,-301.17"/>
<polygon fill="black" stroke="black" points="642.18,-304.3 649.97,-297.11 639.4,-297.87 642.18,-304.3"/>
</g>
<!-- K&#45;&gt;C -->
<g id="edge16" class="edge">
<title>K&#45;&gt;C</title>
<path fill="none" stroke="black" d="M644.7,-36.17C646.56,-45.84 649.02,-58.13 651.5,-69 652.11,-71.66 652.77,-74.43 653.45,-77.19"/>
<polygon fill="black" stroke="black" points="650.07,-78.12 655.92,-86.96 656.86,-76.4 650.07,-78.12"/>
<text text-anchor="middle" x="744" y="-57.8" font-family="Times,serif" font-size="14.00">Brake Actuator Command</text>
</g>
<!-- M -->
<g id="node15" class="node">
<title>M</title>
<polygon fill="none" stroke="black" points="593.5,-210 459.5,-210 459.5,-174 593.5,-174 593.5,-210"/>
<text text-anchor="middle" x="526.5" y="-188.3" font-family="Times,serif" font-size="14.00">Pressure Sensor</text>
</g>
<!-- M&#45;&gt;C -->
<g id="edge19" class="edge">
<title>M&#45;&gt;C</title>
<path fill="none" stroke="black" d="M522.06,-173.99C520.37,-163.41 520.31,-150.14 527.5,-141 530.88,-136.71 548.82,-131.02 570.49,-125.47"/>
<polygon fill="black" stroke="black" points="571.46,-128.84 580.31,-123.03 569.77,-122.04 571.46,-128.84"/>
<text text-anchor="middle" x="583" y="-144.8" font-family="Times,serif" font-size="14.00">Brake Pressure</text>
</g>
<!-- R -->
<g id="node17" class="node">
<title>R</title>
<polygon fill="none" stroke="black" points="1146.5,-210 1034.5,-210 1034.5,-174 1146.5,-174 1146.5,-210"/>
<text text-anchor="middle" x="1090.5" y="-188.3" font-family="Times,serif" font-size="14.00">Speedometer</text>
</g>
<!-- R&#45;&gt;E -->
<g id="edge21" class="edge">
<title>R&#45;&gt;E</title>
<path fill="none" stroke="black" d="M1088.76,-173.94C1087.01,-163.61 1083.51,-150.61 1076.5,-141 1073.41,-136.77 1069.64,-132.9 1065.55,-129.4"/>
<polygon fill="black" stroke="black" points="1067.46,-126.45 1057.39,-123.15 1063.2,-132.01 1067.46,-126.45"/>
</g>
<!-- O -->
<g id="node18" class="node">
<title>O</title>
<polygon fill="none" stroke="black" points="415.5,-370 245.5,-370 245.5,-334 415.5,-334 415.5,-370"/>
<text text-anchor="middle" x="330.5" y="-348.3" font-family="Times,serif" font-size="14.00">Vehicle Speed Sensor</text>
</g>
<!-- O&#45;&gt;B -->
<g id="edge22" class="edge">
<title>O&#45;&gt;B</title>
<path fill="none" stroke="black" d="M328.81,-333.81C328.01,-325.79 327.05,-316.05 326.17,-307.07"/>
<polygon fill="black" stroke="black" points="329.64,-306.64 325.18,-297.03 322.68,-307.32 329.64,-306.64"/>
</g>
<!-- S -->
<g id="node19" class="node">
<title>S</title>
<polygon fill="none" stroke="black" points="227,-370 0,-370 0,-334 227,-334 227,-370"/>
<text text-anchor="middle" x="113.5" y="-348.3" font-family="Times,serif" font-size="14.00">Transmission Position Sensor</text>
</g>
<!-- S&#45;&gt;B -->
<g id="edge23" class="edge">
<title>S&#45;&gt;B</title>
<path fill="none" stroke="black" d="M163.8,-333.99C193.71,-323.88 231.84,-310.99 263.34,-300.34"/>
<polygon fill="black" stroke="black" points="264.53,-303.63 272.88,-297.11 262.29,-297 264.53,-303.63"/>
</g>
</g>
</svg>
